<?xml version="1.0" encoding="UTF-8"?>
<svg id="Capa_1" data-name="Capa 1" xmlns="http://www.w3.org/2000/svg" viewBox="0 0 243.69 338">
  <defs>
    <style>
      .cls-1 {
        fill: #e4e4e4;
      }
    </style>
  </defs>
  <path class="cls-1" d="M237.76,210.73c1.97,39.92,3.95,79.84,5.92,119.76,.25,5.06-2.31,7.49-7.93,7.49-32.29,0-64.57,0-96.86,0-43.5,0-87,0-130.5,0-6.56,0-8.67-2.17-8.36-8.62,2.31-47.6,4.62-95.2,6.95-142.8,1.57-32.05,3.17-64.1,4.76-96.14,.29-5.8,2.26-7.63,8.16-7.63,11.3,0,22.61-.12,33.91,.1,1.95,.04,4.19,1.09,5.71,2.37,1.74,1.46,1.87,3.84,.96,6.04-.95,2.29-2.7,3.65-5.18,3.78-2.8,.14-5.6,.09-8.41,.09-6.78,.01-13.57,.09-20.35-.03-2.16-.04-2.74,.74-2.84,2.81-1.81,38.3-3.68,76.6-5.55,114.89-1.75,35.86-3.52,71.71-5.28,107.57-.05,1.08-.35,2.24-.06,3.23,.23,.78,1.11,1.44,1.84,1.95,.37,.26,1.05,.05,1.6,.05,70.27,0,140.54,0,210.81,0,3.91,0,3.94,0,3.75-3.85-2.2-45.43-4.4-90.87-6.62-136.3-1.4-28.63-2.83-57.25-4.24-85.88-.25-5.12,.09-4.42-4.75-4.44-8.5-.03-17,.02-25.5-.02-3.56-.02-5.69-1.39-6.66-4.1-1.42-3.96,1.3-8.18,5.66-8.23,12.3-.12,24.6-.1,36.9,0,3.73,.03,5.97,2.47,6.22,6.5,.4,6.5,.69,13,1.01,19.51,1.64,33.96,3.28,67.92,4.92,101.89Z"/>
  <path class="cls-1" d="M176.13,89.82c0,11.3,.03,22.6-.03,33.9,0,1.79,.52,2.96,1.99,4.09,5.38,4.13,6.85,11.22,3.71,17.01-3.1,5.71-10.1,8.57-16.28,6.29-4.6-1.69-7.71-5.08-8.71-9.95-1.03-5.08,.38-9.63,4.49-12.86,1.98-1.56,2.46-3.19,2.46-5.52-.08-21.07,.06-42.13-.1-63.2-.11-14.1-4.99-26.43-15.3-36.2-17.44-16.53-43.36-14.05-58.02,5.37-6.81,9.02-10.35,19.23-10.41,30.52-.1,21.52,0,43.04-.1,64.55-.01,2.16,1.06,3.19,2.47,4.41,4.72,4.06,6.07,10.22,3.61,15.73-2.35,5.26-7.9,8.46-13.64,7.85-5.99-.64-10.74-4.91-11.85-10.99-.93-5.13,.7-9.56,4.81-12.75,1.82-1.41,2.28-2.91,2.28-5.05-.06-21.07-.25-42.13,.03-63.2,.26-20.22,7.84-37.26,24.2-49.57,23.34-17.57,55.09-11.96,72.39,12.39,7.89,11.1,11.82,23.5,11.96,37.08,.1,10.03,.02,20.07,.02,30.11Z"/>
  <path class="cls-1" d="M121.81,171.19c1.97-2.64,2.99-4.51,4.47-5.9,12.9-12.06,27.94-15.44,44.48-9.5,16.15,5.8,24.72,18.08,26.8,34.92,2.58,20.92-3.47,38.85-19.12,53.24-16.85,15.48-33.74,30.91-50.67,46.3-5.14,4.67-7.24,4.69-12.28,.11-17.4-15.83-34.97-31.5-52.04-47.68-17.26-16.35-22.1-36.85-16.36-59.39,7.75-30.43,46.06-40.34,69.37-18.41,1.59,1.49,2.85,3.33,5.36,6.32Zm63.98,27.72c-.35-2.95-.56-5.92-1.06-8.84-3.77-22.33-29.53-32.19-47.16-17.94-3.69,2.98-6.76,6.74-10.03,10.22-4.37,4.66-7.53,4.67-12.01-.01-3.48-3.64-6.71-7.61-10.63-10.71-16.25-12.86-41.33-4.49-45.92,15.46-4.09,17.76-.31,33.82,13.19,46.59,15.49,14.66,31.43,28.84,47.12,43.29,1.71,1.57,2.92,1.48,4.58-.05,15.7-14.44,31.56-28.7,47.14-43.27,9.95-9.31,14.69-21.06,14.78-34.74Z"/>
  <path class="cls-1" d="M121.54,95.17c-9.75,0-19.51,.06-29.26-.02-5.23-.05-8.24-4.85-5.86-9.13,1.21-2.17,3.16-3.2,5.59-3.21,19.87-.02,39.74-.04,59.6,.01,3.67,0,6.34,2.68,6.41,6.04,.08,3.43-2.66,6.25-6.42,6.28-10.02,.08-20.05,.03-30.07,.03Z"/>
  <ellipse class="cls-1" cx="150.51" cy="197.04" rx="7.71" ry="10.28"/>
  <ellipse class="cls-1" cx="91.39" cy="197.04" rx="7.71" ry="10.28"/>
  <path class="cls-1" d="M132.31,233.92c-1.75-4.99-6.65-8.1-11.63-7.54-4.39,.49-8.12,3.73-9.36,8.16"/>
  <path class="cls-1" d="M89.33,215.65c-1.85-.23-5.83,11.46-3.16,13.93,.84,.78,2.28,.58,3.16,0,3.65-2.39,1.77-13.71,0-13.93Z"/>
</svg>